<svg width="825" height="506" viewBox="0 0 825 506" fill="none" xmlns="http://www.w3.org/2000/svg">
<path x="0" y="0" fill-rule="evenodd" clip-rule="evenodd" d="M135.054 1.104C131.035 2.709 124.093 8.918 121.936 12.836C120.827 14.851 118.818 18.075 117.471 20C116.124 21.925 112.543 27.046 109.514 31.38C104.544 38.492 100.925 45.305 89.535 69C85.501 77.392 82.067 83.856 73.863 98.5C56.952 128.685 56.756 129.181 51.979 154C50.867 159.775 49.435 166.3 48.795 168.5C47.187 174.031 47.427 230.116 49.078 234.411C52.575 243.511 56.843 252.231 60.71 258.173C68.266 269.786 81.402 280.247 95 285.479C104.058 288.965 104.449 289.262 103.105 291.632C98.739 299.33 89.563 330.826 88.507 341.74C88.175 345.172 87.488 349.222 86.98 350.74C86.053 353.512 85.17 363.4 85.059 372.25C84.991 377.734 84.285 378.008 77.777 375.069C75.425 374.007 71.25 372.387 68.5 371.468C65.75 370.549 60.404 368.718 56.619 367.399C46.129 363.742 35.766 364.45 26.02 369.49C20.134 372.533 7.32899 385.758 3.91199 392.321C1.17399 397.582 0.626989 399.838 0.232989 407.5C-0.471011 421.181 1.22299 432.07 5.51699 441.48C8.60599 448.249 10.78 451.112 19.83 460.331C30.54 471.241 35.939 475.358 48 481.812C51.575 483.725 56.597 486.77 59.16 488.579C66.685 493.89 71.893 496.146 79.937 497.581C93.728 500.041 101.826 499.178 113.898 493.96L119.297 491.626L123.235 493.893C125.401 495.14 129.497 496.973 132.337 497.966C135.177 498.96 138.85 500.255 140.5 500.845C144.515 502.279 156.992 505.006 159.528 505.003C163.599 504.997 175.454 498.349 179.768 493.652L184.037 489.005L204.49 489.881C222.823 490.666 240.545 490.017 243.05 488.469C243.533 488.171 244.622 488.731 245.472 489.714C246.321 490.696 248.25 492.904 249.758 494.62C254.002 499.45 261.359 502 271.047 502C278.406 502 279.837 501.668 285.362 498.682C288.738 496.858 293.401 494.105 295.725 492.566C300.66 489.297 302.261 489.419 314.5 493.999C329.296 499.536 340.183 497.968 358.5 487.662C368.249 482.176 376.107 475.728 387.081 464.21C395.282 455.601 396.857 453.365 399.264 446.911C400.783 442.835 402.021 438.891 402.014 438.146C402.001 436.916 405.113 426.118 408.621 415.215C411 407.823 410.362 395.667 407.119 386.577C404.06 378.004 395.78 366.627 391.382 364.955C388.121 363.715 388.392 361.528 392.385 356.863C398.605 349.597 402 341.947 402 335.199C402 329.703 401.732 328.952 398.923 326.589C397.231 325.165 395.431 324 394.923 324C394.415 324 394 319.411 394 313.802C394 305.667 393.473 301.873 391.394 295.052C388.05 284.08 386.684 281.434 381.683 276.25C377.796 272.22 377.286 272 371.848 272C367.317 272 365.578 272.473 363.575 274.25C361.095 276.449 348 297.478 348 299.261C348 299.756 346.531 302.487 344.736 305.331C342.94 308.174 340.84 311.625 340.068 313C333.047 325.511 328.616 332.71 327.022 334.194C324.772 336.29 324.577 335.906 323.473 327.211C322.844 322.259 320.998 316.549 314.513 299.5C313.049 295.65 310.712 289.35 309.32 285.5C307.928 281.65 306.387 278.072 305.895 277.55C305.403 277.027 305 275.596 305 274.369C305 272.717 307.068 270.68 312.961 266.527C341.202 246.625 351.786 227.957 352.724 196.389C353.06 185.055 352.831 181.53 351.556 178.479C350.683 176.39 349.495 171.49 348.917 167.59C348.339 163.691 347.261 158.7 346.523 156.5C345.785 154.3 344.388 149.8 343.419 146.5C340.783 137.52 332.767 122.217 323.496 108.465L315.238 96.215L314.714 76.358C314.116 53.681 312.494 44.738 306.517 31.163C304.498 26.577 302.613 21.388 302.328 19.632C301.628 15.321 295.286 6.082 291.102 3.277C289.021 1.883 286.2 1 283.824 1C278.085 1 268.939 6.009 264.344 11.668C262.23 14.272 258.405 18.674 255.845 21.451C249.462 28.375 242.772 37.628 235.763 49.232C229.404 59.757 226.565 62.479 217.71 66.532C212.174 69.067 211.569 69.129 197.253 68.634C173.321 67.805 170 67.035 170 62.312C170 60.968 169.516 58.963 168.923 57.857C168.331 56.75 167.267 53.743 166.558 51.173C157.448 18.139 153.177 7.009 147.909 2.577C144.644 -0.170998 139.671 -0.739998 135.054 1.104ZM613.899 4.266C611.918 5.495 607.418 8.408 603.899 10.74C600.379 13.073 596.6 15.001 595.5 15.026C592.651 15.09 590.235 16.64 581.508 24C569.815 33.861 565.961 36.725 560.5 39.608C549.851 45.23 532.263 55.582 526.412 59.672C519.304 64.641 508.942 75.318 503.115 83.676C500.882 86.879 497.802 91.3 496.27 93.5C491.736 100.013 482.131 115.494 481.335 117.574C480.929 118.633 479.572 121.011 478.32 122.857C474.938 127.845 471.124 136.276 467.173 147.5L463.652 157.5L463.681 177C463.724 206.338 465.953 215.58 477.427 234C481.382 240.35 490.431 249.552 497.563 254.477C504.379 259.183 516.263 264.865 522.117 266.216C527.591 267.48 528.426 269.409 524.878 272.595C518.061 278.716 497.258 319.329 493.936 333C492.801 337.675 491.225 343.79 490.436 346.588C489.646 349.386 489 354.157 489 357.189C489 360.221 488.51 364.231 487.912 366.101C487.313 367.97 486.619 370.15 486.369 370.944C486.026 372.031 485.298 371.723 483.417 369.694C481.544 367.674 479.962 367 477.094 367C468.124 367 463.989 375.518 463.257 395.5C462.754 409.229 463.287 413.398 467.538 428.967C473.072 449.235 480.081 461.362 494.435 475.5C500.394 481.369 504.813 484.666 511.028 487.879C519.202 492.103 519.888 492.275 530.5 492.746C543.557 493.326 548.136 492.306 554.597 487.374C558.685 484.254 559.581 483.944 561.711 484.914C564.671 486.263 572.403 488.143 576.5 488.51C620.213 492.429 637.577 492.752 658 490.029C662.675 489.406 668.914 488.932 671.865 488.977C674.815 489.022 680.44 488.197 684.365 487.143C688.289 486.09 694.812 484.92 698.86 484.543C702.907 484.166 707.22 483.401 708.444 482.844C710.299 481.998 711.723 482.511 717.012 485.93C728.656 493.455 737.165 494.94 758.117 493.102C765.926 492.417 767.52 491.894 775.117 487.519C783.882 482.473 796.521 471.132 800.215 465C801.375 463.075 803.17 460.551 804.204 459.391C806.732 456.554 815 440.108 815 437.914C815 436.953 815.827 434.216 816.837 431.833C820.162 423.989 823.491 407 824.643 392C825.077 386.348 824.835 385.043 822.789 382C819.529 377.15 816.237 377.052 803.907 381.436C796.523 384.062 793.399 384.749 792.072 384.039C791.08 383.508 788.575 379.131 786.505 374.311C784.435 369.492 781.674 363.86 780.37 361.795C779.067 359.729 778 357.018 777.999 355.77C777.997 350.619 773.243 331.323 769.679 322C766.574 313.879 757.368 295.3 754.87 292.115C751.233 287.477 752.863 286.257 765.703 284.013C773.086 282.723 778.837 280.327 789.157 274.243C796.369 269.992 796.849 269.49 797.42 265.615C799.002 254.881 790.262 242.546 774.498 233.263C770.649 230.997 764.883 228.395 761.684 227.481C758.485 226.567 755.626 225.189 755.33 224.418C755.034 223.648 755.783 221.339 756.993 219.288C758.203 217.237 760.029 213.071 761.051 210.03C762.074 206.988 764.055 201.179 765.455 197.119C767.788 190.352 768 188.339 768 172.918C768 161.193 767.546 154.353 766.5 150.339C765.658 147.105 764.992 140.178 764.982 134.54C764.968 126.312 764.451 122.876 762.118 115.5C759.332 106.691 758.498 105.274 742.996 83C736.698 73.95 724.96 63.188 715.079 57.405C713.111 56.252 708.35 53.365 704.5 50.988C695.711 45.561 685.334 40.85 677.27 38.626C666.66 35.7 660.406 32.343 653.31 25.766C643.024 16.231 637.396 12 634.999 12C633.739 12 630.736 9.911 627.809 7C622.069 1.29 619.509 0.787002 613.899 4.266ZM142.316 15.75C143.208 17.813 145.749 25.575 147.963 33C150.178 40.425 153.79 51.675 155.991 58C158.191 64.325 159.993 70.653 159.996 72.061C159.998 73.47 160.955 75.648 162.121 76.9C163.797 78.699 164.918 79.05 167.457 78.574C169.225 78.242 174.233 78.652 178.586 79.485C188.803 81.44 209.751 81.476 217.142 79.551C224.02 77.76 233.689 71.457 238.274 65.777C240.173 63.425 244.635 57 248.189 51.5C260.144 33.002 277.94 13 282.442 13C285.684 13 286.793 14.817 292.515 29.5C300.365 49.646 301.199 53.888 301.651 76C301.87 86.725 302.517 97.224 303.089 99.331C303.661 101.439 306.721 106.658 309.888 110.93C316.65 120.05 327.077 138.267 330.425 146.807C331.719 150.112 334.429 160.054 336.447 168.9C342.301 194.578 341.324 210.328 332.791 227.842C329.578 234.435 319.703 245.551 312.164 251.062C310.329 252.403 308.291 253.95 307.637 254.5C297.736 262.815 273.27 274.083 251.437 280.383C244.872 282.277 232.588 285.893 224.14 288.418C202.738 294.814 201.539 294.879 183 290.649C174.475 288.704 162.55 286.616 156.5 286.01C139.769 284.334 110.398 277.866 97.142 272.939C83.582 267.899 71.797 256.193 64.312 240.33C60.653 232.577 60.607 232.324 59.681 214.5C58.684 195.333 58.613 186.646 59.406 181C64.089 147.645 66.752 137.099 74.178 122.501C77.534 115.902 82.173 107.352 84.485 103.501C89.293 95.494 100.648 73.433 107.904 58C116.201 40.352 135.988 12.087 140.098 12.011C140.427 12.005 141.425 13.688 142.316 15.75ZM621.98 20.75C623.148 23.913 624.841 27.063 625.743 27.75C627.989 29.463 631.989 29.319 634.052 27.453C635.624 26.03 636.461 26.552 644.407 33.914C653.046 41.918 661.614 47.001 669 48.505C677.387 50.212 695.665 59.031 710.844 68.693C720.934 75.117 731.617 86.826 743.336 104.307C750.507 115.004 751.838 119.68 753.008 138.27C753.57 147.196 754.435 155.85 754.93 157.5C758.398 169.051 756.793 185.276 750.522 202.077C745.035 216.775 740.508 224.097 730.602 234.297C724.258 240.829 721.765 242.569 711.892 247.359C705.61 250.406 689.734 256.465 676.5 260.867C653.738 268.438 651.907 268.883 641 269.49C634.675 269.843 623.65 270.827 616.5 271.678C608.553 272.624 600.196 272.999 595 272.642C584.553 271.924 566.485 267.546 548.818 261.451C541.493 258.923 531.702 255.728 527.061 254.349C509.074 249.006 497.312 240.619 487.051 225.821C478.997 214.205 476.815 207.324 475.379 189C473.137 160.393 476.703 147.669 495.796 116.153C505.901 99.474 516.78 84.512 524.248 77.023C530.835 70.418 536.534 66.55 556 55.472C573.068 45.758 576.271 43.524 586.363 34.293C590.509 30.501 594.681 27.625 596.901 27.027C601.366 25.824 610.409 20.962 614.5 17.564C616.15 16.193 618.03 15.056 618.678 15.036C619.326 15.016 620.812 17.587 621.98 20.75ZM652.19 103.353C646.967 106.251 644.364 114.263 647.363 118.211C650.664 122.555 659.636 122.145 664.049 117.448C667.102 114.198 667.031 106.28 663.926 103.75C661.42 101.708 655.514 101.508 652.19 103.353ZM561.846 108.165C556.171 111.455 554.238 118.04 557.557 122.777C560.778 127.376 571.381 124.324 573.979 118.05C575.613 114.106 573.853 108.71 570.424 107.147C567.016 105.595 566.089 105.705 561.846 108.165ZM232.368 126.368C228.675 130.062 228 131.352 228 134.713C228 141.332 233.621 144.405 239.912 141.225C244.514 138.898 247.231 134.962 247.378 130.407C247.483 127.174 247.013 126.302 244.102 124.317C239.31 121.049 237.344 121.393 232.368 126.368ZM143.642 133.975C139.46 138.604 138.3 142.168 139.861 145.594C143.666 153.945 159 147.949 159 138.11C159 133.717 155.179 130 150.662 130C147.934 130 146.499 130.813 143.642 133.975ZM600.593 136.572C598.444 137.36 593.269 140.522 589.093 143.6C577.043 152.48 557.169 165.281 549 169.424C533.736 177.165 519.216 187.297 516.054 192.412C513.585 196.407 513.497 198.944 515.583 205.966C518.18 214.714 524.63 220.171 541.515 227.909C555.748 234.431 558.758 235.538 571.977 239.111C576.089 240.222 579.914 241.499 580.477 241.949C581.039 242.399 585.55 243.799 590.5 245.06C601.177 247.781 615.904 248.236 623.5 246.081C631.571 243.791 646.097 238.064 651.568 235.014C657.988 231.435 679.62 217.092 687.5 211.19C701.42 200.763 711.119 188.301 712.617 178.917C714.004 170.23 701.261 161.533 673.5 152.221C670.2 151.114 664.35 149.08 660.5 147.701C656.65 146.323 649.225 143.963 644 142.458C638.775 140.953 633.825 139.16 633 138.474C628.945 135.099 607.973 133.868 600.593 136.572ZM177.073 145.635C175.933 147.084 175.01 148.772 175.022 149.385C175.061 151.355 179.062 159.433 181.045 161.546C182.954 163.58 182.927 163.63 176.733 169.751C168.635 177.753 158.759 183 151.793 183C143.839 183 139.231 181.157 135.237 176.379C129.5 169.516 123 169.576 123 176.49C123 179.271 123.981 180.909 128.25 185.251C133.521 190.614 135.989 192.011 143.621 193.957L147.742 195.008L148.455 202.243C149.919 217.093 156.642 230.532 166.088 237.486C174.397 243.603 180.51 245.515 191.5 245.433C199.014 245.378 201.656 244.894 207.5 242.502C211.35 240.926 216.248 238.494 218.384 237.097C223.223 233.933 230.946 224.49 234.303 217.634C237.978 210.129 241 197.253 241 189.102C241 182.216 241.069 182.022 243.75 181.404C247.079 180.635 260.77 173.486 263.356 171.166C266.117 168.688 269 162.494 269 159.04C269 155.059 265.685 151.656 262.699 152.571C259.475 153.559 258.503 154.558 256.547 158.896C255.108 162.088 253.504 163.462 247.79 166.402C243.435 168.642 239.385 170 237.06 170C232.833 170 208.456 164.015 202.75 161.576C198.596 159.801 198.406 159.37 200.532 156.559C203.073 153.198 202.385 148.502 198.923 145.589C196.151 143.256 195.021 143 187.496 143C179.666 143 179.016 143.164 177.073 145.635ZM626.634 148.863C629.605 151.083 635.23 153.033 650 156.962C653.575 157.913 658.38 159.653 660.677 160.829C662.974 162.004 668.374 163.929 672.677 165.105C680.669 167.291 693.615 173.245 697.869 176.692L700.239 178.612L698.192 182.623C695.471 187.958 694.808 188.402 685.5 191.124C678.757 193.096 675.221 193.467 663 193.482C649.454 193.499 647.776 193.283 637.5 190.198C626.862 187.005 618.615 186.08 613.763 187.536C610.262 188.587 589.221 197.939 583.561 200.959C580.777 202.445 575.125 205.487 571 207.721C566.875 209.954 561.077 212.34 558.115 213.023C551.686 214.505 540.738 213.713 537.397 211.525C536.118 210.686 534.412 210 533.608 210C529.84 210 525.679 200.299 528.162 197.303C530.115 194.947 544.718 185.602 555.849 179.586C569.583 172.163 586.679 161.172 594.111 154.987C603.315 147.328 606.934 145.88 616 146.232C622.015 146.465 624.121 146.986 626.634 148.863ZM204.412 175.483C207.21 176.298 213.27 177.866 217.879 178.967C222.487 180.068 226.794 181.414 227.449 181.958C229.368 183.55 229.213 191.909 227.114 200.083C222.275 218.929 214.36 227.642 197.67 232.493C180.27 237.552 163.089 223.806 160.057 202.4C159.052 195.3 159.268 194 161.457 194C163.525 194 173.936 188.278 179.5 184.083C182.25 182.009 184.886 180.13 185.358 179.906C185.83 179.683 186.145 185.686 186.06 193.247C185.907 206.679 185.961 207.052 188.407 209.497C191.315 212.406 192.719 212.586 195.777 210.443C197.93 208.936 198 208.335 198 191.443C198 181.849 198.298 174 198.662 174C199.026 174 201.614 174.667 204.412 175.483ZM634 202.139C642.793 204.758 646.837 205.367 658.874 205.883L673.248 206.5L659.088 215.772C645.255 224.83 631.874 231.151 620.807 233.854C612.712 235.831 601.154 235.286 592.113 232.5C587.651 231.125 580.288 228.868 575.75 227.485C563.704 223.813 563.983 224.035 569 222.095C571.475 221.138 579.125 217.437 586 213.871C592.875 210.304 601.875 205.921 606 204.13C610.125 202.339 614.175 200.478 615 199.996C617.792 198.361 623.462 199.001 634 202.139ZM754.262 237.987C763.284 240.26 764.414 240.791 772.724 246.665C778.415 250.687 785 258.332 785 260.918C785 262.724 776.95 267.165 768.05 270.269C754.291 275.068 733.961 275.209 727.704 270.55C726.007 269.286 726.077 268.948 728.969 264.388C730.652 261.735 732.585 259.261 733.264 258.892C733.944 258.522 738.706 258.849 743.846 259.618C751.416 260.751 753.679 260.778 755.754 259.759C759.531 257.903 760.621 255.659 759.23 252.605C757.979 249.86 757.484 249.699 745.694 248.208C741.401 247.665 737.619 246.952 737.29 246.624C736.745 246.079 744.837 236.318 746 236.117C746.275 236.07 749.993 236.911 754.262 237.987ZM715.901 261.25C714.645 263.667 704.678 276.496 702.077 279.044C697.538 283.491 688.102 291.623 679.5 298.502C676.75 300.701 674.275 302.727 674 303.005C673.725 303.283 669 306.854 663.5 310.942C658 315.029 651.7 320.085 649.5 322.176C644.386 327.037 641.778 327.081 627.024 322.551C608.606 316.896 588.553 304.71 567 286.076C562.875 282.509 559.312 279.458 559.083 279.295C558.854 279.133 558.875 278.792 559.129 278.537C559.384 278.283 564.971 279.429 571.546 281.083C585.861 284.686 601.941 285.763 616 284.06C621.225 283.427 630.9 282.655 637.5 282.343C644.1 282.032 652.2 281.179 655.5 280.448C664.662 278.417 695.123 268.103 708.5 262.501C712.9 260.659 716.628 259.117 716.785 259.076C716.942 259.034 716.544 260.012 715.901 261.25ZM543.688 278.25C552.793 292.088 580.626 314.678 602.424 325.921C613.89 331.835 631.504 337.565 641.248 338.55C648.744 339.308 649.657 338.947 656.415 332.537C658.568 330.494 664.868 325.398 670.415 321.212C675.962 317.026 683.2 311.392 686.5 308.692C689.8 305.992 694.525 302.181 697 300.222C699.475 298.262 705.448 292.682 710.273 287.821L719.047 278.983L722.803 280.9C724.87 281.954 729.109 283.557 732.225 284.463C737.554 286.012 738.141 286.507 742.119 292.805C750.945 306.779 760.541 330.257 763.453 345C764.376 349.675 765.346 354.251 765.608 355.169C765.911 356.232 765.342 357.074 764.042 357.487C762.919 357.843 758.092 361.049 753.315 364.61L744.63 371.085L742.339 368.792C740.589 367.041 739.803 364.611 739.01 358.5C737.535 347.141 733.291 334.237 730.408 332.348C727.661 330.548 724.435 331.318 722.929 334.133C722.113 335.658 722.349 337.577 723.93 342.259C726.681 350.406 726.642 351.25 723.577 349.853C720.171 348.301 714.691 349.582 711.627 352.645C706.186 358.087 700.974 373.124 699.036 388.974C696.816 407.128 698.239 448.843 701.553 462.805C702.376 466.273 702.812 469.495 702.521 469.965C702.231 470.436 698.732 471.35 694.746 471.996C690.761 472.643 684.96 473.808 681.856 474.586C678.751 475.364 673.262 476 669.657 476C666.052 476 658.005 476.668 651.775 477.485C645.545 478.302 635.96 478.917 630.474 478.853C612.716 478.645 571.456 476.124 568.706 475.078L566.033 474.062L570.91 467.619C575.63 461.382 580.833 449.852 582.984 440.859C584.818 433.187 585.375 413.019 584.045 402.415C581.201 379.751 571.129 360.888 559.5 356.447C552.588 353.807 549.361 355.753 539.666 368.406C537.27 371.532 536.594 371.908 535.298 370.832C534.05 369.797 533.889 368.155 534.433 362.03C534.8 357.888 535.753 351.66 536.551 348.188C537.348 344.716 538 341.036 538 340.009C538 335.565 531.739 333.347 528.798 336.75C527.237 338.556 524.668 347.938 523.467 356.219L522.782 360.939L519.941 359.469C516.563 357.723 510.73 357.557 507.684 359.122C506.483 359.739 504.262 361.399 502.75 362.809L500 365.374V362.767C500 359.491 504.533 338.17 506.647 331.5C509.578 322.254 529.656 282.721 534.17 277.307C536.552 274.451 538.742 272.089 539.038 272.057C539.334 272.026 541.426 274.813 543.688 278.25ZM280.307 286.189C273.485 298.231 246.349 318.606 240.251 316.266C239.512 315.982 237.828 313.621 236.509 311.018C235.19 308.415 232.923 304.874 231.472 303.149L228.834 300.014L231.482 299.007C232.938 298.453 234.452 298 234.846 298C236.711 298 269.206 287.914 274.5 285.692C282.293 282.422 282.434 282.434 280.307 286.189ZM303.433 304.577C310.798 326.15 312.297 333.729 314.465 360.346C317.325 395.463 316.244 417.819 310.563 441C305.48 461.744 299.16 473.005 287.593 481.929C276.877 490.195 271.264 491.644 262.77 488.337C260.422 487.423 258.322 486.532 258.104 486.358C257.366 485.768 256.014 475.574 254.011 455.5C251.934 434.689 247.22 412.179 244.221 408.75C241.225 405.325 234 407.689 234 412.094C234 413.076 235.36 419.419 237.022 426.189C240.167 439.001 244.148 474.185 242.625 475.708C241.48 476.853 189.973 477.347 187.058 476.24C184.654 475.328 184.612 475.104 184.372 461.907C183.824 431.814 183.067 411.339 182.442 409.709C181.619 407.565 177.234 406.366 175.095 407.701C171.151 410.162 170.962 412.236 171.646 445.53C172.009 463.147 171.986 479.26 171.596 481.338C171.021 484.406 170.017 485.668 166.248 488.058C159.192 492.533 151.726 492.004 135.929 485.913C128.479 483.039 127.811 482.52 122.911 475.782C115.69 465.855 112.487 458.381 109.505 444.501C108.087 437.901 105.84 428.451 104.512 423.501C99.401 404.454 98 394.003 98 374.943C98 350.086 100.831 331.764 108.17 309.137L112.179 296.775L118.69 303.908C130.132 316.446 142.621 323.722 163.147 329.81L172.216 332.5L174.071 337.406C176.51 343.859 179.71 347.04 187.815 351.066C207.475 360.832 231.656 351.268 238.931 330.848C239.685 328.732 240.746 328.051 244.188 327.475C249.58 326.573 262.525 320.169 270.741 314.34C278.163 309.074 287.572 298.44 292.18 290.11C294.006 286.809 295.822 284.428 296.215 284.819C296.609 285.211 299.857 294.101 303.433 304.577ZM376.252 290.17C380.253 298.253 381.792 309.855 380.108 319.25C377.588 333.31 377.572 334.572 379.883 336.883C381.098 338.098 383.278 339 385 339C386.65 339 387.998 339.337 387.996 339.75C387.989 341.121 383.888 347.258 379.667 352.214L375.5 357.106L368.872 356.464C356.777 355.292 344.578 359.868 334.212 369.464L328.252 374.982L327.337 364.241L326.421 353.5L330.961 347.834C336.806 340.539 351.932 316.463 362.151 298.191C368 287.732 370.597 283.968 371.803 284.201C372.712 284.376 374.713 287.062 376.252 290.17ZM153.222 298.005C164.618 299.629 175.977 301.469 178.463 302.095L182.983 303.233L180.157 306.867C178.603 308.865 176.496 312.559 175.476 315.075L173.621 319.649L168.56 318.472C162.57 317.078 146.325 310.617 140.565 307.338C138.329 306.065 133.8 302.509 130.5 299.434L124.5 293.845L128.5 294.45C130.7 294.782 141.825 296.382 153.222 298.005ZM217.95 307.93C222.781 310.331 228.474 320.661 227.583 325.411C226.267 332.425 216.12 342.374 213.883 338.844C213.414 338.105 213.021 335.25 213.01 332.5C212.998 329.75 212.541 325.888 211.994 323.919C210.143 317.256 202.551 316.101 199.491 322.017C198.069 324.768 198.1 325.381 199.892 329.752C200.961 332.364 202.059 336.44 202.331 338.81L202.826 343.121L199.663 342.44C195.309 341.503 191.014 339.253 187.75 336.199C185.38 333.982 185.003 332.856 185.022 328.063C185.07 315.922 192.28 307.744 204.461 306.015C210.363 305.177 213.231 305.585 217.95 307.93ZM724.83 368.383C730.594 375.488 737.39 381.438 741.548 383.018C745.578 384.55 749.589 382.861 759.547 375.437C764.296 371.897 768.711 369 769.359 369C770.008 369 772.486 373.246 774.866 378.435C780.37 390.434 784.127 395.557 788.477 396.992C791.46 397.977 793.106 397.686 801.938 394.618C813.809 390.493 813.015 389.168 809.873 407.85C804.461 440.032 790.329 463.65 769.022 476.123L761.544 480.5H747.522C733.706 480.5 733.411 480.453 727.413 477.318C718.871 472.852 715.551 468.718 713.593 460.108C709.775 443.323 709.229 395.97 712.657 379C714.196 371.385 717.669 362 718.949 362C719.335 362 721.981 364.872 724.83 368.383ZM377.5 371.11C384.828 373.82 389.448 378.133 393.205 385.77C396.278 392.017 396.498 393.145 396.467 402.485C396.437 411.241 395.957 414.009 392.647 424.5C390.565 431.1 388.177 438.732 387.341 441.461C385.17 448.55 380.837 454.09 370 463.636C362.604 470.151 357.77 473.389 348.176 478.253C336.7 484.07 335.419 484.491 329.548 484.367C323.996 484.25 308 480.458 308 479.259C308 479.011 308.842 477.614 309.872 476.154C318.728 463.595 325.153 439.405 328.55 405.833C328.889 402.481 329.668 399.958 330.457 399.655C331.191 399.373 332.566 396.748 333.512 393.821C337.835 380.45 347.549 371.714 361.5 368.65C364.656 367.957 372.046 369.093 377.5 371.11ZM560.044 372.703C568.411 382.233 572.33 396.669 572.34 418C572.347 433.962 571.04 441.003 566.121 451.5C562.672 458.86 549.359 475.838 545.094 478.316C540.723 480.855 527.186 480.949 521 478.483C509.261 473.803 499.146 464.889 490.07 451.225C484.985 443.57 483.049 438.646 477.911 420.302C474.004 406.356 473.814 405.044 474.154 394.351C474.559 381.596 475.543 379.334 479.237 382.671C484.015 386.987 489.563 390 492.732 390C496.533 390 498.214 388.52 503.867 380.197C506.121 376.877 509.28 373.225 510.888 372.08L513.81 369.999L518.152 373.627C523.327 377.951 532.285 383.778 535.827 385.124C539.666 386.584 543.482 384.492 547.681 378.626C552.129 372.411 555.103 369 556.071 369C556.468 369 558.256 370.666 560.044 372.703ZM61.555 381.428C74.441 385.648 82.38 389.334 84.738 392.192C85.332 392.912 86.779 398.9 87.954 405.5C89.129 412.1 91.183 421.55 92.519 426.5C93.855 431.45 96.294 441.498 97.939 448.83C100.327 459.473 101.946 464.09 105.973 471.738C108.746 477.007 110.9 481.394 110.758 481.488C110.616 481.582 107.366 482.695 103.535 483.963C97.695 485.894 95.263 486.174 88.48 485.696C78.364 484.982 74.38 483.615 64.979 477.632C60.866 475.014 52.775 470.11 47 466.735C34.293 459.309 21.076 446.576 16.613 437.462C13.673 431.458 11.01 418.18 11.005 409.5C11 401.944 15.294 393.785 23.054 386.606C35.156 375.41 40.841 374.646 61.555 381.428Z" fill="black"/>
</svg>
